<svg width="60" height="60" viewBox="0 0 60 60" fill="none" xmlns="http://www.w3.org/2000/svg">
<path d="M30 1.2002C14.094 1.2002 1.20001 14.0942 1.20001 30.0002C1.20001 45.9062 14.094 58.8002 30 58.8002C45.906 58.8002 58.8 45.9062 58.8 30.0002C58.8 14.0942 45.906 1.2002 30 1.2002ZM41.715 24.7922C41.727 25.0382 41.73 25.2842 41.73 25.5242C41.73 33.0242 36.027 41.6672 25.593 41.6672C22.5099 41.6723 19.4909 40.7868 16.899 39.1172C17.34 39.1712 17.793 39.1922 18.252 39.1922C20.91 39.1922 23.355 38.2892 25.296 36.7652C24.1132 36.742 22.967 36.3503 22.0173 35.6448C21.0677 34.9392 20.3618 33.955 19.998 32.8292C20.8475 32.9907 21.7226 32.9569 22.557 32.7302C21.2732 32.4706 20.1186 31.7749 19.2891 30.7612C18.4597 29.7475 18.0063 28.478 18.006 27.1682V27.0992C18.771 27.5222 19.647 27.7802 20.577 27.8102C19.3734 27.009 18.5214 25.7782 18.1951 24.3696C17.8689 22.961 18.0932 21.481 18.822 20.2322C20.2469 21.9842 22.0238 23.4174 24.0377 24.4391C26.0516 25.4608 28.2577 26.0482 30.513 26.1632C30.2263 24.9461 30.3497 23.6684 30.864 22.5287C31.3784 21.389 32.2549 20.4512 33.3572 19.861C34.4596 19.2708 35.726 19.0614 36.9597 19.2652C38.1934 19.4691 39.3251 20.0748 40.179 20.9882C41.4485 20.737 42.6659 20.2714 43.779 19.6112C43.3559 20.9256 42.47 22.0417 41.286 22.7522C42.4106 22.6168 43.5086 22.3144 44.544 21.8552C43.7835 22.9949 42.8254 23.9895 41.715 24.7922V24.7922Z" fill="#F2F2F2"/>
</svg>
