<svg width="60" height="60" viewBox="0 0 60 60" fill="none" xmlns="http://www.w3.org/2000/svg">
<path d="M30 60C25.9375 60 22.0508 59.209 18.3398 57.627C14.6289 56.0449 11.4355 53.916 8.75977 51.2402C6.08398 48.5645 3.95508 45.3711 2.37305 41.6602C0.791016 37.9492 0 34.0625 0 30C0 25.9375 0.791016 22.0508 2.37305 18.3398C3.95508 14.6289 6.08398 11.4355 8.75977 8.75977C11.4355 6.08398 14.6289 3.95508 18.3398 2.37305C22.0508 0.791016 25.9375 0 30 0C34.0625 0 37.9492 0.791016 41.6602 2.37305C45.3711 3.95508 48.5645 6.08398 51.2402 8.75977C53.916 11.4355 56.0449 14.6289 57.627 18.3398C59.209 22.0508 60 25.9375 60 30C60 34.0625 59.209 37.9492 57.627 41.6602C56.0449 45.3711 53.916 48.5645 51.2402 51.2402C48.5645 53.916 45.3711 56.0449 41.6602 57.627C37.9492 59.209 34.0625 60 30 60ZM45 18.75C45 17.7344 44.6387 16.8555 43.916 16.1133C43.1934 15.3711 42.3047 15 41.25 15H18.75C17.7344 15 16.8555 15.3711 16.1133 16.1133C15.3711 16.8555 15 17.7344 15 18.75V22.5H21.6797C23.9453 20 26.7188 18.75 30 18.75C33.2812 18.75 36.0547 20 38.3203 22.5H45V18.75ZM22.5 30C22.5 32.0703 23.2324 33.8379 24.6973 35.3027C26.1621 36.7676 27.9297 37.5 30 37.5C32.0703 37.5 33.8379 36.7676 35.3027 35.3027C36.7676 33.8379 37.5 32.0703 37.5 30C37.5 27.9297 36.7676 26.1621 35.3027 24.6973C33.8379 23.2324 32.0703 22.5 30 22.5C27.9297 22.5 26.1621 23.2324 24.6973 24.6973C23.2324 26.1621 22.5 27.9297 22.5 30ZM45 26.25H40.5469C41.0156 27.5391 41.25 28.7891 41.25 30C41.25 33.125 40.1562 35.7813 37.9688 37.9688C35.7813 40.1562 33.125 41.25 30 41.25C26.875 41.25 24.2187 40.1562 22.0312 37.9688C19.8438 35.7813 18.75 33.125 18.75 30C18.75 28.7891 18.9844 27.5391 19.4531 26.25H15V41.25C15 42.3047 15.3613 43.1934 16.084 43.916C16.8066 44.6387 17.6953 45 18.75 45H41.25C42.3047 45 43.1934 44.6387 43.916 43.916C44.6387 43.1934 45 42.3047 45 41.25V26.25Z" fill="#F2F2F2"/>
</svg>
