<svg width="29" height="25" viewBox="0 0 29 25" fill="none" xmlns="http://www.w3.org/2000/svg">
<path d="M15.967 12.5L23.4011 4.86084C23.5257 4.73389 23.4209 4.54102 23.2283 4.54102H20.9683C20.8352 4.54102 20.7078 4.59229 20.62 4.68018L14.4887 10.9814L8.35731 4.68018C8.27235 4.59229 8.1449 4.54102 8.00897 4.54102H5.74901C5.55643 4.54102 5.45164 4.73389 5.57625 4.86084L13.0103 12.5L5.57625 20.1392C5.54834 20.1675 5.53043 20.2021 5.52465 20.2389C5.51888 20.2757 5.52548 20.3132 5.54367 20.3468C5.56185 20.3805 5.59087 20.409 5.62727 20.4288C5.66367 20.4487 5.70592 20.4592 5.74901 20.459H8.00897C8.14207 20.459 8.26951 20.4077 8.35731 20.3198L14.4887 14.0186L20.62 20.3198C20.705 20.4077 20.8324 20.459 20.9683 20.459H23.2283C23.4209 20.459 23.5257 20.2661 23.4011 20.1392L15.967 12.5Z" fill="white"/>
</svg>
