<svg width="60" height="60" viewBox="0 0 60 60" fill="none" xmlns="http://www.w3.org/2000/svg">
<path fill-rule="evenodd" clip-rule="evenodd" d="M30 60C46.5685 60 60 46.5685 60 30C60 13.4315 46.5685 0 30 0C13.4315 0 0 13.4315 0 30C0 46.5685 13.4315 60 30 60ZM44 23.2552L30 30L16 23.2552V21.6667C16 21.1979 16.1732 20.803 16.5195 20.4818C16.8659 20.1606 17.276 20 17.75 20H42.25C42.724 20 43.1341 20.1606 43.4805 20.4818C43.8268 20.803 44 21.1979 44 21.6667V23.2552ZM16 25.1823L29.125 31.6667H30.875L44 25.1823V38.3333C44 38.7847 43.8268 39.1753 43.4805 39.5052C43.1341 39.8351 42.724 40 42.25 40H17.75C17.276 40 16.8659 39.8351 16.5195 39.5052C16.1732 39.1753 16 38.7847 16 38.3333V25.1823Z" fill="#F2F2F2"/>
</svg>
