<svg width="60" height="60" viewBox="0 0 60 60" fill="none" xmlns="http://www.w3.org/2000/svg">
<path d="M30 1.2002C14.094 1.2002 1.19995 14.0942 1.19995 30.0002C1.19995 45.9062 14.094 58.8002 30 58.8002C45.906 58.8002 58.8 45.9062 58.8 30.0002C58.8 14.0942 45.906 1.2002 30 1.2002ZM22.95 41.9372H17.118V23.1692H22.95V41.9372ZM19.998 20.8652C18.156 20.8652 16.965 19.5602 16.965 17.9462C16.965 16.2992 18.192 15.0332 20.073 15.0332C21.954 15.0332 23.106 16.2992 23.142 17.9462C23.142 19.5602 21.954 20.8652 19.998 20.8652ZM44.25 41.9372H38.418V31.5362C38.418 29.1152 37.572 27.4712 35.463 27.4712C33.852 27.4712 32.895 28.5842 32.472 29.6552C32.316 30.0362 32.277 30.5762 32.277 31.1132V41.9342H26.442V29.1542C26.442 26.8112 26.367 24.8522 26.289 23.1662H31.356L31.623 25.7732H31.74C32.508 24.5492 34.389 22.7432 37.536 22.7432C41.373 22.7432 44.25 25.3142 44.25 30.8402V41.9372Z" fill="#F2F2F2"/>
</svg>
