<svg width="124" height="124" viewBox="0 0 124 124" fill="none" xmlns="http://www.w3.org/2000/svg">
<g clip-path="url(#clip0)">
<path d="M42.5745 86.0124C41.4371 86.0142 40.3389 85.5702 39.4891 84.765L15.9768 62.4999L40.7948 38.9973C41.7199 38.1543 42.9185 37.7317 44.1331 37.8203C45.3476 37.909 46.481 38.5018 47.2894 39.4714C48.0979 40.4409 48.5169 41.7097 48.4564 43.005C48.3958 44.3002 47.8605 45.5184 46.9656 46.3976L29.9634 62.4999L45.6599 77.3598C46.3651 78.0264 46.8633 78.9057 47.0883 79.8809C47.3133 80.8562 47.2545 81.8813 46.9197 82.8202C46.585 83.759 45.99 84.5672 45.2139 85.1374C44.4378 85.7075 43.5172 86.0127 42.5745 86.0124V86.0124ZM84.1392 86.0025L108.957 62.4999L85.4449 40.2348C84.5237 39.3631 83.3151 38.9169 82.0851 38.9944C80.8551 39.072 79.7044 39.6668 78.8861 40.6481C78.0678 41.6295 77.6489 42.9169 77.7217 44.2272C77.7945 45.5375 78.3529 46.7634 79.2741 47.6351L94.9706 62.4999L77.9683 78.5973C77.0465 79.469 76.4875 80.6951 76.4143 82.0059C76.3411 83.3167 76.7597 84.6047 77.578 85.5867C78.3963 86.5687 79.5473 87.1642 80.7778 87.2422C82.0082 87.3201 83.2173 86.8742 84.1392 86.0025V86.0025ZM62.4019 93.0167L71.6953 33.6167C71.8141 32.9675 71.8097 32.2995 71.6821 31.6522C71.5545 31.0049 71.3065 30.3914 70.9526 29.848C70.5987 29.3045 70.1462 28.8421 69.6218 28.4881C69.0973 28.134 68.5116 27.8956 67.8992 27.7867C67.2868 27.6779 66.6601 27.7009 66.0562 27.8544C65.4522 28.0079 64.8833 28.2887 64.383 28.6804C63.8827 29.072 63.4611 29.5665 63.1432 30.1346C62.8253 30.7028 62.6175 31.333 62.532 31.9881L53.2386 91.3881C53.1198 92.0373 53.1243 92.7053 53.2519 93.3526C53.3794 93.9998 53.6275 94.6133 53.9813 95.1568C54.3352 95.7003 54.7877 96.1627 55.3122 96.5167C55.8366 96.8707 56.4223 97.1092 57.0348 97.2181C57.6472 97.3269 58.2739 97.3039 58.8778 97.1504C59.4817 96.9969 60.0506 96.716 60.551 96.3244C61.0513 95.9327 61.4729 95.4383 61.7908 94.8701C62.1087 94.302 62.3165 93.6718 62.4019 93.0167V93.0167Z" fill="#F2F2F2"/>
</g>
<defs>
<clipPath id="clip0">
<rect width="92.9339" height="99" fill="white" transform="translate(16 13)"/>
</clipPath>
</defs>
</svg>
