<svg width="23" height="22" viewBox="0 0 23 22" fill="none" xmlns="http://www.w3.org/2000/svg">
<ellipse cx="11.5" cy="11" rx="11.5" ry="11" fill="#FEE266"/>
<path d="M15.525 10.3334H7.475C7.21266 10.3334 7 10.6169 7 10.9667V11.0334C7 11.3832 7.21266 11.6667 7.475 11.6667H15.525C15.7873 11.6667 16 11.3832 16 11.0334V10.9667C16 10.6169 15.7873 10.3334 15.525 10.3334Z" fill="white"/>
<path d="M15.525 13.6666H7.475C7.21266 13.6666 7 13.9502 7 14.3V14.3666C7 14.7164 7.21266 15 7.475 15H15.525C15.7873 15 16 14.7164 16 14.3666V14.3C16 13.9502 15.7873 13.6666 15.525 13.6666Z" fill="white"/>
<path d="M15.525 7H7.475C7.21266 7 7 7.28355 7 7.63333V7.7C7 8.04978 7.21266 8.33333 7.475 8.33333H15.525C15.7873 8.33333 16 8.04978 16 7.7V7.63333C16 7.28355 15.7873 7 15.525 7Z" fill="white"/>
</svg>
