<svg width="124" height="124" viewBox="0 0 124 124" fill="none" xmlns="http://www.w3.org/2000/svg">
<g clip-path="url(#clip0)">
<path d="M77.3001 101.75C80.7348 101.75 83.5192 98.7839 83.5192 95.125C83.5192 91.4661 80.7348 88.5 77.3001 88.5C73.8654 88.5 71.0811 91.4661 71.0811 95.125C71.0811 98.7839 73.8654 101.75 77.3001 101.75Z" fill="#F2F2F2"/>
<path d="M77.3001 35.5C80.7348 35.5 83.5192 32.5339 83.5192 28.875C83.5192 25.2161 80.7348 22.25 77.3001 22.25C73.8654 22.25 71.0811 25.2161 71.0811 28.875C71.0811 32.5339 73.8654 35.5 77.3001 35.5Z" fill="#F2F2F2"/>
<path d="M24.4382 68.625C27.8729 68.625 30.6572 65.6589 30.6572 62C30.6572 58.3411 27.8729 55.375 24.4382 55.375C21.0035 55.375 18.2191 58.3411 18.2191 62C18.2191 65.6589 21.0035 68.625 24.4382 68.625Z" fill="#F2F2F2"/>
<path d="M99.0668 48.75C96.3168 48.7587 93.6472 49.739 91.4762 51.5374C89.3053 53.3357 87.7557 55.8504 87.0703 58.6875H73.749C73.3086 56.8194 72.488 55.0774 71.3454 53.5847C70.2027 52.092 68.7659 50.8853 67.1367 50.0499C65.5075 49.2146 63.7259 48.771 61.9179 48.7508C60.11 48.7305 58.3199 49.1339 56.6746 49.9326L46.7956 36.7819C48.4206 34.5086 49.305 31.7324 49.3144 28.875C49.3144 26.2544 48.5849 23.6927 47.2182 21.5137C45.8514 19.3347 43.9089 17.6365 41.6361 16.6336C39.3633 15.6307 36.8624 15.3683 34.4497 15.8796C32.0369 16.3909 29.8207 17.6528 28.0812 19.5058C26.3417 21.3589 25.157 23.7198 24.6771 26.2901C24.1972 28.8603 24.4435 31.5244 25.3849 33.9456C26.3263 36.3667 27.9205 38.436 29.966 39.892C32.0114 41.3479 34.4162 42.125 36.8762 42.125C38.6296 42.1207 40.3619 41.7175 41.9572 40.9424L51.8331 54.0931C50.2006 56.3621 49.3159 59.1412 49.3159 62C49.3159 64.8588 50.2006 67.6379 51.8331 69.9069L41.9572 83.0576C40.3619 82.2825 38.6296 81.8793 36.8762 81.875C34.4162 81.875 32.0114 82.6521 29.966 84.108C27.9205 85.564 26.3263 87.6333 25.3849 90.0545C24.4435 92.4756 24.1972 95.1397 24.6771 97.71C25.157 100.28 26.3417 102.641 28.0812 104.494C29.8207 106.347 32.0369 107.609 34.4497 108.12C36.8624 108.632 39.3633 108.369 41.6361 107.366C43.9089 106.364 45.8514 104.665 47.2182 102.486C48.5849 100.307 49.3144 97.7456 49.3144 95.125C49.3052 92.2675 48.4209 89.4913 46.7956 87.2181L56.6715 74.0674C58.317 74.8667 60.1073 75.2706 61.9156 75.2506C63.724 75.2306 65.506 74.7872 67.1356 73.9518C68.7652 73.1164 70.2023 71.9095 71.3452 70.4165C72.4881 68.9235 73.3087 67.181 73.749 65.3125H87.0703C87.6558 67.706 88.8596 69.8766 90.545 71.5779C92.2304 73.2791 94.3299 74.4429 96.6049 74.937C98.88 75.4311 101.24 75.2358 103.416 74.3731C105.592 73.5105 107.497 72.0152 108.916 70.0569C110.334 68.0987 111.208 65.756 111.44 63.2949C111.671 60.8338 111.25 58.3528 110.224 56.1338C109.199 53.9148 107.61 52.0467 105.637 50.7415C103.665 49.4363 101.389 48.7463 99.0668 48.75V48.75ZM30.6572 28.875C30.6572 27.5647 31.0219 26.2838 31.7053 25.1944C32.3886 24.1049 33.3599 23.2557 34.4963 22.7543C35.6327 22.2529 36.8831 22.1217 38.0895 22.3773C39.2959 22.6329 40.404 23.2639 41.2738 24.1904C42.1435 25.1169 42.7358 26.2974 42.9758 27.5825C43.2158 28.8677 43.0926 30.1997 42.6219 31.4103C42.1512 32.6208 41.3541 33.6555 40.3314 34.3835C39.3086 35.1115 38.1062 35.5 36.8762 35.5C35.2273 35.4983 33.6465 34.7997 32.4805 33.5577C31.3146 32.3156 30.6588 30.6315 30.6572 28.875V28.875ZM36.8762 101.75C35.6462 101.75 34.4438 101.361 33.4211 100.633C32.3984 99.9055 31.6013 98.8708 31.1306 97.6603C30.6599 96.4497 30.5367 95.1177 30.7767 93.8325C31.0166 92.5474 31.6089 91.3669 32.4787 90.4404C33.3484 89.5139 34.4566 88.8829 35.663 88.6273C36.8693 88.3717 38.1198 88.5029 39.2562 89.0043C40.3925 89.5057 41.3638 90.3549 42.0472 91.4444C42.7306 92.5338 43.0953 93.8147 43.0953 95.125C43.0936 96.8815 42.4379 98.5656 41.272 99.8077C40.106 101.05 38.5251 101.748 36.8762 101.75ZM61.7525 68.625C60.5225 68.625 59.3201 68.2365 58.2973 67.5085C57.2746 66.7805 56.4775 65.7458 56.0068 64.5353C55.5361 63.3247 55.4129 61.9927 55.6529 60.7075C55.8929 59.4224 56.4852 58.2419 57.3549 57.3154C58.2247 56.3889 59.3328 55.7579 60.5392 55.5023C61.7456 55.2467 62.996 55.3779 64.1324 55.8793C65.2688 56.3807 66.2401 57.2299 66.9234 58.3194C67.6068 59.4088 67.9715 60.6897 67.9715 62C67.9699 63.7565 67.3141 65.4406 66.1482 66.6827C64.9823 67.9247 63.4014 68.6233 61.7525 68.625V68.625ZM99.0668 68.625C97.8368 68.625 96.6344 68.2365 95.6117 67.5085C94.589 66.7805 93.7919 65.7458 93.3212 64.5353C92.8505 63.3247 92.7273 61.9927 92.9673 60.7075C93.2072 59.4224 93.7995 58.2419 94.6693 57.3154C95.539 56.3889 96.6472 55.7579 97.8536 55.5023C99.0599 55.2467 100.31 55.3779 101.447 55.8793C102.583 56.3807 103.554 57.2299 104.238 58.3194C104.921 59.4088 105.286 60.6897 105.286 62C105.284 63.7565 104.628 65.4406 103.463 66.6827C102.297 67.9247 100.716 68.6233 99.0668 68.625V68.625Z" fill="#F2F2F2"/>
</g>
<defs>
<clipPath id="clip0">
<rect width="99.505" height="106" fill="white" transform="translate(12 9)"/>
</clipPath>
</defs>
</svg>
